<svg xmlns="http://www.w3.org/2000/svg" xmlns:xlink="http://www.w3.org/1999/xlink" width="1080" zoomAndPan="magnify" viewBox="0 0 810 809.999993" height="1080" preserveAspectRatio="xMidYMid meet" version="1.0"><defs><clipPath id="e6cb0c89a1"><path d="M 197 378 L 760 378 L 760 790.199219 L 197 790.199219 Z M 197 378 " clip-rule="nonzero"/></clipPath><clipPath id="f3115ef576"><path d="M 233 759 L 284 759 L 284 790.199219 L 233 790.199219 Z M 233 759 " clip-rule="nonzero"/></clipPath><clipPath id="9fea75b0e3"><path d="M 50 19.949219 L 613 19.949219 L 613 426 L 50 426 Z M 50 19.949219 " clip-rule="nonzero"/></clipPath></defs><path fill="#d1434c" d="M 734.679688 465.367188 L 550.957031 783.554688 L 257.851562 783.554688 L 221.660156 720.859375 L 514.765625 720.859375 L 698.488281 402.6875 Z M 734.679688 465.367188 " fill-opacity="1" fill-rule="nonzero"/><g clip-path="url(#e6cb0c89a1)"><path stroke-linecap="butt" transform="matrix(1.728332, 0, 0, 1.728154, 0.0000035, 19.988751)" fill="none" stroke-linejoin="miter" d="M 425.080248 257.71913 L 318.779674 441.838968 L 149.191011 441.838968 L 128.25093 405.560199 L 297.839593 405.560199 L 404.140168 221.449402 Z M 425.080248 257.71913 " stroke="#d1434c" stroke-width="1" stroke-opacity="1" stroke-miterlimit="10"/></g><g clip-path="url(#f3115ef576)"><path stroke-linecap="butt" transform="matrix(1.728332, 0, 0, 1.728154, 0.0000035, 19.988751)" fill="none" stroke-linejoin="miter" d="M 149.780904 442.860651 L 149.191011 441.838968 " stroke="#1d1d1b" stroke-width="1" stroke-opacity="1" stroke-miterlimit="10"/></g><path stroke-linecap="butt" transform="matrix(1.728332, 0, 0, 1.728154, 0.0000035, 19.988751)" fill-opacity="1" fill="#ed6a83" fill-rule="nonzero" stroke-linejoin="miter" d="M 319.100612 368.738944 L 297.839593 405.560199 L 85.240705 405.560199 L 21.459908 295.080611 L 0.580851 258.919381 L 22.090484 221.679959 L 42.960501 257.838929 L 106.989911 368.738944 Z M 319.100612 368.738944 " stroke="#ed6a83" stroke-width="1" stroke-opacity="1" stroke-miterlimit="10"/><path stroke-linecap="butt" transform="matrix(1.728332, 0, 0, 1.728154, 0.0000035, 19.988751)" fill-opacity="1" fill="#fbc73a" fill-rule="nonzero" stroke-linejoin="miter" d="M 149.780904 368.738944 L 106.989911 368.738944 L 0.689337 184.619106 L 64.470133 74.150819 L 85.728892 37.329564 L 128.519885 37.329564 L 107.261126 74.150819 L 43.48033 184.619106 Z M 149.780904 368.738944 " stroke="#fbc73a" stroke-width="1" stroke-opacity="1" stroke-miterlimit="10"/><path stroke-linecap="butt" transform="matrix(1.728332, 0, 0, 1.728154, 0.0000035, 19.988751)" fill="none" stroke-linejoin="miter" d="M 43.48033 184.619106 L 63.979686 221.440361 " stroke="#fbc73a" stroke-width="1" stroke-opacity="1" stroke-miterlimit="10"/><path fill="#41bdd7" d="M 588.410156 84.5 L 294.300781 84.5 L 111.234375 401.53125 L 75.148438 339.039062 L 258.871094 20.851562 L 551.511719 20.851562 Z M 588.410156 84.5 " fill-opacity="1" fill-rule="nonzero"/><g clip-path="url(#9fea75b0e3)"><path stroke-linecap="butt" transform="matrix(1.728332, 0, 0, 1.728154, 0.0000035, 19.988751)" fill="none" stroke-linejoin="miter" d="M 340.449776 37.329564 L 170.28026 37.329564 L 64.359387 220.780336 L 43.48033 184.619106 L 149.780904 0.499267 L 319.100612 0.499267 Z M 340.449776 37.329564 " stroke="#41bdd7" stroke-width="1" stroke-opacity="1" stroke-miterlimit="10"/></g><path stroke-linecap="butt" transform="matrix(1.728332, 0, 0, 1.728154, 0.0000035, 19.988751)" fill="none" stroke-linejoin="miter" d="M 64.359387 220.780336 L 63.979686 221.440361 " stroke="#fbc73a" stroke-width="1" stroke-opacity="1" stroke-miterlimit="10"/><path stroke-linecap="butt" transform="matrix(1.728332, 0, 0, 1.728154, 0.0000035, 19.988751)" fill-opacity="1" fill="#0f797d" fill-rule="nonzero" stroke-linejoin="miter" d="M 466.840623 180.509772 L 445.731033 219.539399 L 425.489331 184.478963 L 361.789899 74.150819 L 149.200051 74.150819 L 170.28026 37.329564 L 382.879149 37.329564 Z M 466.840623 180.509772 " stroke="#0f797d" stroke-width="1" stroke-opacity="1" stroke-miterlimit="10"/><path stroke-linecap="butt" transform="matrix(1.728332, 0, 0, 1.728154, 0.0000035, 19.988751)" fill="none" stroke-linejoin="miter" d="M 468.090474 258.270658 L 468.000069 258.119213 " stroke="#41bdd7" stroke-width="1" stroke-opacity="1" stroke-miterlimit="10"/><path stroke-linecap="butt" transform="matrix(1.728332, 0, 0, 1.728154, 0.0000035, 19.988751)" fill="none" stroke-linejoin="miter" d="M 468.090474 178.199685 L 466.840623 180.509772 " stroke="#41bdd7" stroke-width="1" stroke-opacity="1" stroke-miterlimit="10"/><path stroke-linecap="butt" transform="matrix(1.728332, 0, 0, 1.728154, 0.0000035, 19.988751)" fill="none" stroke-linejoin="miter" d="M 446.829455 221.449402 L 445.731033 219.539399 " stroke="#41bdd7" stroke-width="1" stroke-opacity="1" stroke-miterlimit="10"/><path stroke-linecap="butt" transform="matrix(1.728332, 0, 0, 1.728154, 0.0000035, 19.988751)" fill-opacity="1" fill="#1d1d1b" fill-rule="nonzero" stroke-linejoin="miter" d="M 468.090474 258.270658 L 404.309677 368.738944 L 383.050918 405.560199 L 339.731055 405.560199 L 360.980774 368.738944 L 360.989814 368.738944 L 425.080248 257.71913 L 319.100612 74.150819 L 361.789899 74.150819 Z M 468.090474 258.270658 " stroke="#1d1d1b" stroke-width="1" stroke-opacity="1" stroke-miterlimit="10"/><path stroke-linecap="butt" transform="matrix(1.728332, 0, 0, 1.728154, 0.0000035, 19.988751)" fill-opacity="1" fill="#1d1d1b" fill-rule="nonzero" stroke-linejoin="miter" d="M 425.080248 257.71913 L 360.989814 368.738944 L 360.980774 368.738944 Z M 425.080248 257.71913 " stroke="#1d1d1b" stroke-width="1" stroke-opacity="1" stroke-miterlimit="10"/></svg>