<svg xmlns="http://www.w3.org/2000/svg" viewBox="0 0 468.66 594.52"><defs><style>.cls-1{fill:#d1434c;stroke:#d1434c;}.cls-1,.cls-2,.cls-3,.cls-4,.cls-5,.cls-6,.cls-7,.cls-8,.cls-9{stroke-miterlimit:10;}.cls-2,.cls-5,.cls-8{fill:none;}.cls-2,.cls-9{stroke:#1d1d1b;}.cls-3{fill:#ed6a83;stroke:#ed6a83;}.cls-4{fill:#fbc73a;}.cls-4,.cls-5{stroke:#fbc73a;}.cls-6{fill:#41bdd7;}.cls-6,.cls-8{stroke:#41bdd7;}.cls-7{fill:#0f797d;stroke:#0f797d;}.cls-9{fill:#1d1d1b;}</style></defs><g id="hex1"><polygon class="cls-1" points="425.08 257.72 318.78 441.84 149.19 441.84 128.25 405.56 297.84 405.56 404.14 221.45 425.08 257.72"/><line class="cls-2" x1="149.78" y1="442.86" x2="149.19" y2="441.84"/></g><g id="hex2"><polygon class="cls-3" points="319.1 368.74 297.84 405.56 85.24 405.56 21.46 295.08 0.58 258.92 22.09 221.68 42.96 257.84 106.99 368.74 319.1 368.74"/></g><g id="hex3"><polygon class="cls-4" points="149.78 368.74 106.99 368.74 0.69 184.62 64.47 74.15 85.73 37.33 128.52 37.33 107.26 74.15 43.48 184.62 149.78 368.74"/></g><g id="hex4"><line class="cls-5" x1="43.48" y1="184.62" x2="63.98" y2="221.44"/><polygon class="cls-6" points="340.45 37.33 170.28 37.33 64.36 220.78 43.48 184.62 149.78 0.5 319.1 0.5 340.45 37.33"/><line class="cls-5" x1="64.36" y1="220.78" x2="63.98" y2="221.44"/></g><g id="hex5"><polygon class="cls-7" points="466.84 180.51 445.73 219.54 425.49 184.48 361.79 74.15 149.2 74.15 170.28 37.33 382.88 37.33 466.84 180.51"/><line class="cls-8" x1="468.09" y1="258.27" x2="468" y2="258.12"/><line class="cls-8" x1="468.09" y1="178.2" x2="466.84" y2="180.51"/><line class="cls-8" x1="446.83" y1="221.45" x2="445.73" y2="219.54"/></g><g id="hex6"><polygon class="cls-9" points="468.09 258.27 404.31 368.74 383.05 405.56 339.73 405.56 360.98 368.74 360.99 368.74 425.08 257.72 319.1 74.15 361.79 74.15 468.09 258.27"/><polygon class="cls-9" points="425.08 257.72 360.99 368.74 360.98 368.74 425.08 257.72"/><line class="cls-8" x1="159.84" y1="594.27" x2="159.8" y2="594.21"/><line class="cls-8" x1="159.84" y1="564" x2="159.37" y2="564.87"/><line class="cls-8" x1="151.91" y1="580.35" x2="151.5" y2="579.63"/></g></svg>